<svg xmlns="http://www.w3.org/2000/svg" version="1.1" width="262" height="86">
    <path xmlns="http://www.w3.org/2000/svg"
        d="M0 0 C6.00374703 4.51098234 9.61157124 9.54302497 12.15234375 16.6171875 C13.29862299 25.98802028 13.06525602 34.87612844 7.15234375 42.6171875 C1.90074811 48.39614003 -3.43785386 52.16915963 -11.26953125 52.96484375 C-20.7621625 53.33654317 -27.75908271 52.23262991 -34.90625 45.75 C-41.37708329 38.8352218 -43.41509915 32.12139957 -43.328125 22.68579102 C-43.02911463 14.16301177 -40.12381152 8.44789147 -33.97265625 2.6796875 C-24.14161792 -5.02522979 -11.09263149 -6.53376297 0 0 Z "
        fill="rgba(77,67,68,0)" transform="translate(59.84765625,17.3828125)" />
    <path xmlns="http://www.w3.org/2000/svg"
        d="M0 0 C2.97851562 0.24414062 2.97851562 0.24414062 5.95703125 0.48828125 C4.56948813 5.0161439 2.75997749 9.07316632 0.5859375 13.27734375 C0.26294174 13.90305267 -0.06005402 14.5287616 -0.39283752 15.1734314 C-1.07235706 16.48716029 -1.75402656 17.79977916 -2.43774414 19.11132812 C-3.47954174 21.11150146 -4.51267491 23.11597795 -5.54492188 25.12109375 C-6.20912334 26.40260928 -6.87382011 27.68386826 -7.5390625 28.96484375 C-8.13904053 30.12064941 -8.73901855 31.27645508 -9.35717773 32.46728516 C-10.77774089 35.0129837 -12.13023169 37.29310884 -14.04296875 39.48828125 C-16.80439178 40.01627801 -19.2066242 39.67427106 -22.04296875 39.48828125 C-20.51348674 35.45003243 -18.65629646 31.66578507 -16.671875 27.83203125 C-16.34887924 27.20727905 -16.02588348 26.58252686 -15.69309998 25.93884277 C-15.01257801 24.62385345 -14.33092184 23.30945054 -13.64819336 21.99560547 C-12.60947791 19.99599919 -11.57498187 17.99425288 -10.54101562 15.9921875 C-2.57551383 0.61556258 -2.57551383 0.61556258 0 0 Z "
        fill="#0595F0" transform="translate(52.04296875,22.51171875)" />
    <path xmlns="http://www.w3.org/2000/svg"
        d="M0 0 C1.98 0.495 1.98 0.495 4 1 C3.34 2.32 2.68 3.64 2 5 C1.01 4.67 0.02 4.34 -1 4 C-0.67 2.68 -0.34 1.36 0 0 Z "
        fill="#0794EC" transform="translate(29,24)" />
    <path xmlns="http://www.w3.org/2000/svg"
        d="M0 0 C0.33 0 0.66 0 1 0 C1 2.31 1 4.62 1 7 C-1.97 6.505 -1.97 6.505 -5 6 C-3.35830472 3.97945196 -1.69088222 1.97956942 0 0 Z "
        fill="#0596F2" transform="translate(60,55)" />
    <path xmlns="http://www.w3.org/2000/svg"
        d="M0 0 C4.62 0 9.24 0 14 0 C14 0.66 14 1.32 14 2 C12.58622218 2.36552803 11.16879424 2.71695495 9.75 3.0625 C8.96109375 3.25972656 8.1721875 3.45695312 7.359375 3.66015625 C4.84356698 4.02253257 3.33996286 3.98878961 1 3 C0.67 2.01 0.34 1.02 0 0 Z "
        fill="#1187D3" transform="translate(27,22)" />
    <path xmlns="http://www.w3.org/2000/svg"
        d="M0 0 C0.66 0 1.32 0 2 0 C2 4.62 2 9.24 2 14 C-2.95 14 -7.9 14 -13 14 C-9 12 -9 12 -5.9375 10.9375 C-1.73141128 8.16327127 -1.13455447 4.74721474 0 0 Z "
        fill="#1485CC" transform="translate(60,48)" />
    <path xmlns="http://www.w3.org/2000/svg"
        d="M0 0 C4.62 0 9.24 0 14 0 C14 0.66 14 1.32 14 2 C12.9275 2.226875 11.855 2.45375 10.75 2.6875 C6.51449891 4.16992538 5.31350781 5.22983913 3 9 C1.74443113 12.17921787 1.74443113 12.17921787 1 15 C0.67 15 0.34 15 0 15 C0 10.05 0 5.1 0 0 Z "
        fill="#0B8FE3" transform="translate(27,22)" />
</svg>